<?xml version="1.0" standalone="no"?>
<!DOCTYPE svg PUBLIC "-//W3C//DTD SVG 20010904//EN"
 "http://www.w3.org/TR/2001/REC-SVG-20010904/DTD/svg10.dtd">
<svg version="1.0" xmlns="http://www.w3.org/2000/svg"
 width="401.000000pt" height="401.000000pt" viewBox="0 0 401.000000 401.000000"
 preserveAspectRatio="xMidYMid meet">
<metadata>
Created by potrace 1.14, written by Peter Selinger 2001-2017
</metadata>
<g transform="translate(0.000000,401.000000) scale(0.100000,-0.100000)"
fill="#000000" stroke="none">
<path d="M2108 3915 c-3 -3 -112 -11 -273 -21 -90 -5 -105 -9 -105 -24 0 -6
82 -64 182 -130 157 -103 194 -123 228 -122 15 0 143 14 162 17 13 2 46 7 73
10 28 3 68 8 90 11 41 5 94 12 108 13 18 2 -8 51 -28 51 -3 0 -76 44 -163 98
-148 92 -160 97 -214 98 -31 1 -58 0 -60 -1z"/>
<path d="M1497 3884 c-1 -1 -40 -5 -87 -8 -47 -4 -105 -9 -130 -11 -25 -2 -81
-7 -125 -11 -87 -7 -123 -10 -142 -12 -25 -4 2 -33 115 -123 64 -52 119 -97
122 -100 3 -3 27 -22 53 -42 44 -34 52 -36 100 -32 29 3 61 6 72 9 11 2 43 7
70 10 28 4 57 9 65 11 8 2 35 6 60 9 25 3 54 7 65 10 23 4 91 14 149 21 54 7
67 16 53 35 -7 8 -86 64 -176 125 -151 100 -168 109 -213 110 -27 1 -50 0 -51
-1z"/>
<path d="M787 3834 c-2 -2 -163 -16 -214 -18 -18 0 -33 -3 -33 -6 0 -3 -21 -5
-48 -6 -26 0 -87 -4 -137 -8 -150 -12 -195 -21 -195 -37 0 -5 33 -46 72 -91
77 -88 82 -93 167 -182 l54 -57 66 6 c36 4 77 9 91 10 24 4 53 8 150 20 25 3
63 8 85 11 22 3 56 7 75 9 19 2 64 8 100 14 36 6 87 13 114 15 87 9 83 19 -50
133 -27 23 -60 51 -74 63 -98 85 -124 106 -139 115 -14 8 -77 15 -84 9z"/>
<path d="M66 3418 c7 -251 11 -396 13 -414 1 -14 91 -148 103 -152 4 -2 8 -8
8 -12 0 -11 140 -212 154 -222 6 -4 13 -5 15 -2 9 8 15 663 7 699 -3 11 -5 23
-5 26 -1 3 -23 30 -51 59 -27 29 -62 67 -77 85 -93 109 -148 165 -160 165 -11
0 -12 -41 -7 -232z"/>
<path d="M2577 3604 c-2 -2 -30 -6 -62 -9 -33 -4 -73 -8 -90 -10 -16 -2 -61
-6 -100 -10 -91 -9 -105 -13 -99 -30 3 -8 89 -69 191 -135 295 -194 274 -183
341 -176 31 3 68 8 82 11 14 3 50 8 79 11 30 3 58 7 61 9 4 2 31 7 61 10 30 3
72 11 94 17 l40 10 -27 23 c-22 19 -367 228 -437 265 -22 11 -126 22 -134 14z"/>
<path d="M2069 3546 c-2 -2 -33 -7 -69 -10 -36 -4 -85 -8 -110 -11 -25 -2 -74
-7 -110 -10 -36 -3 -81 -7 -100 -10 -19 -2 -64 -7 -99 -11 -36 -3 -71 -13 -79
-20 -12 -12 -9 -19 21 -47 67 -64 375 -320 402 -335 22 -11 58 -9 152 7 32 6
72 13 88 15 69 11 163 26 200 31 22 3 49 8 61 10 12 3 39 7 60 11 55 9 76 22
66 40 -4 8 -91 76 -193 150 -101 75 -185 140 -187 145 -2 5 -9 9 -15 9 -6 0
-18 6 -26 14 -18 15 -55 29 -62 22z"/>
<path d="M1247 3463 c-2 -1 -32 -5 -68 -8 -35 -3 -71 -7 -79 -9 -8 -3 -42 -7
-75 -11 -33 -3 -87 -10 -120 -15 -33 -5 -80 -12 -105 -14 -99 -10 -146 -19
-178 -32 -38 -16 -36 -25 23 -89 20 -22 65 -71 99 -110 35 -38 83 -91 107
-116 24 -25 63 -67 86 -92 24 -25 51 -50 60 -56 20 -10 76 -6 168 13 11 2 40
7 65 12 25 4 47 8 50 9 9 2 115 19 125 20 6 1 24 4 40 8 17 4 46 9 65 12 192
30 280 53 280 72 0 14 -61 76 -156 159 -107 93 -239 209 -253 222 -22 21 -60
33 -98 30 -18 -1 -35 -3 -36 -5z"/>
<path d="M479 3228 c-13 -24 -14 -30 -25 -193 -3 -55 -8 -118 -9 -140 -3 -33
-12 -168 -20 -300 -1 -16 6 -46 16 -65 15 -29 151 -227 201 -292 7 -9 20 -26
28 -38 82 -119 101 -139 121 -127 12 8 19 24 20 47 1 19 3 44 4 55 6 37 15
110 20 155 3 25 8 61 10 80 2 19 7 67 11 105 3 39 8 72 9 75 2 3 6 37 10 75 4
39 8 72 8 75 4 21 -17 80 -36 100 -12 14 -62 72 -111 130 -133 157 -178 209
-213 247 l-32 34 -12 -23z"/>
<path d="M3152 3195 c-46 -8 -107 -16 -135 -20 -29 -3 -61 -7 -72 -10 -11 -2
-31 -4 -45 -4 -34 -2 -52 -15 -45 -33 4 -9 64 -56 133 -104 70 -48 129 -90
132 -93 3 -3 17 -12 32 -20 15 -8 36 -22 45 -31 10 -9 66 -48 125 -87 115 -77
113 -76 213 -52 22 5 51 12 65 15 80 16 286 66 290 70 12 12 -27 45 -131 111
-63 39 -119 76 -126 82 -7 6 -14 11 -17 11 -7 0 -229 141 -248 158 -23 20
-113 22 -216 7z"/>
<path d="M2590 3094 c-36 -7 -83 -16 -105 -19 -22 -3 -65 -10 -95 -15 -30 -5
-74 -12 -97 -15 -43 -6 -87 -12 -135 -20 -15 -2 -37 -9 -48 -15 -28 -15 -15
-36 62 -100 35 -28 72 -59 83 -68 11 -10 42 -35 70 -57 48 -39 85 -69 131
-110 13 -11 36 -30 51 -42 15 -12 60 -47 98 -78 66 -53 72 -56 115 -51 25 2
79 13 120 24 41 11 156 41 255 67 99 26 185 50 192 53 26 15 19 24 -72 92 -33
24 -66 50 -73 57 -7 7 -26 20 -42 30 -17 9 -30 21 -30 25 0 4 -4 8 -10 8 -5 0
-18 7 -27 15 -63 52 -215 165 -222 165 -5 0 -11 3 -13 8 -1 4 -20 19 -40 35
-41 30 -66 32 -168 11z"/>
<path d="M1875 2963 c-11 -2 -49 -10 -85 -18 -36 -8 -76 -17 -90 -19 -25 -5
-101 -20 -150 -31 -14 -3 -36 -7 -50 -10 -14 -2 -90 -18 -170 -35 -147 -31
-200 -46 -200 -60 0 -11 51 -73 147 -177 48 -53 101 -110 117 -127 198 -217
230 -250 264 -278 40 -33 39 -33 252 25 580 159 620 172 620 197 0 11 -18 29
-105 105 -49 43 -92 81 -95 84 -3 4 -23 21 -45 40 -22 19 -78 69 -125 111
-147 133 -200 180 -203 180 -1 0 -16 4 -32 8 -17 5 -39 7 -50 5z"/>
<path d="M89 2838 c-3 -29 7 -295 16 -452 5 -78 7 -83 93 -235 48 -86 96 -173
106 -193 11 -21 25 -38 32 -38 7 0 15 -6 17 -12 8 -20 10 22 8 202 -5 365 -6
376 -44 434 -18 28 -71 108 -116 179 -76 115 -109 149 -112 115z"/>
<path d="M3845 2699 c-33 -9 -100 -29 -150 -44 -49 -15 -94 -28 -100 -29 -36
-9 -73 -19 -88 -23 -28 -7 -65 -50 -88 -101 -25 -55 -74 -159 -135 -289 -24
-51 -44 -95 -44 -98 0 -2 -16 -37 -35 -76 -38 -79 -43 -107 -20 -115 16 -7
106 24 117 40 4 6 8 8 8 5 0 -9 258 101 286 121 17 13 89 137 191 330 13 25
28 52 33 60 39 63 110 199 110 212 0 24 -19 26 -85 7z"/>
<path d="M982 2648 c-5 -7 -13 -38 -16 -68 -4 -30 -9 -71 -11 -90 -3 -19 -7
-55 -10 -80 -3 -25 -7 -56 -9 -70 -2 -14 -7 -45 -10 -70 -3 -25 -8 -67 -12
-95 -3 -27 -8 -59 -10 -70 -10 -47 -12 -168 -4 -190 5 -14 31 -53 58 -87 27
-35 95 -128 152 -208 57 -80 106 -147 109 -150 3 -3 22 -27 41 -55 57 -83 87
-115 106 -115 16 0 41 69 58 160 2 14 12 57 21 95 9 39 19 81 21 95 3 14 10
45 15 70 6 25 12 54 15 65 2 11 15 70 29 130 14 61 24 120 22 131 -3 24 -23
55 -67 104 -18 19 -57 64 -88 100 -32 35 -64 71 -72 80 -8 8 -44 49 -80 90
-36 40 -72 81 -80 90 -8 9 -42 46 -74 83 -58 66 -84 79 -104 55z"/>
<path d="M3265 2499 c-17 -6 -296 -81 -352 -94 -107 -25 -169 -47 -187 -67
-12 -13 -36 -61 -55 -108 -19 -47 -40 -98 -47 -115 -7 -16 -29 -70 -49 -120
-19 -49 -40 -99 -45 -110 -36 -78 -88 -228 -84 -240 6 -16 61 -18 70 -3 3 4
16 8 30 8 13 0 24 4 24 9 0 5 10 11 23 14 36 9 260 95 346 134 18 8 39 16 45
17 33 6 57 33 90 101 20 41 36 77 36 79 0 2 17 42 39 88 100 216 168 375 168
390 0 20 -25 28 -52 17z"/>
<path d="M430 2370 c-11 -21 -16 -110 -21 -411 -2 -112 -2 -117 27 -160 16
-24 34 -53 41 -64 32 -54 137 -221 142 -225 3 -3 12 -16 19 -30 26 -50 83
-120 97 -120 8 0 16 9 16 20 1 11 3 38 4 60 1 22 3 41 4 43 1 1 4 34 6 72 3
39 8 111 11 160 15 226 21 200 -74 330 -24 33 -50 69 -58 80 -133 186 -168
233 -184 249 -18 18 -18 18 -30 -4z"/>
<path d="M2465 2249 c-80 -25 -393 -120 -414 -125 -68 -17 -270 -66 -289 -70
-43 -9 -57 -38 -106 -219 -26 -99 -68 -255 -93 -347 -49 -186 -49 -213 -2
-204 33 6 46 10 74 21 48 19 120 47 120 45 0 -2 1 -1 155 56 69 25 130 47 135
48 6 2 21 7 35 13 14 5 62 23 108 39 46 16 91 36 101 45 9 9 52 103 94 210 42
107 82 208 88 224 7 17 13 32 14 35 1 3 9 22 18 44 9 21 17 44 17 50 0 7 4 16
9 22 16 18 39 101 31 114 -12 20 -29 20 -95 -1z"/>
<path d="M94 2126 c-3 -12 -3 -103 -1 -200 4 -138 8 -182 21 -201 9 -13 25
-41 37 -62 86 -154 192 -323 199 -318 4 3 7 103 6 223 l-2 219 -59 94 c-33 52
-62 96 -66 99 -3 3 -8 10 -10 15 -13 34 -96 155 -106 155 -7 0 -15 -11 -19
-24z"/>
<path d="M3458 1954 c-92 -33 -354 -146 -365 -157 -11 -11 -38 -61 -162 -307
-16 -30 -39 -77 -52 -105 -13 -27 -26 -52 -29 -55 -12 -12 -4 -45 12 -48 18
-3 36 4 248 106 80 38 154 79 165 92 17 19 64 99 133 230 10 19 34 64 53 98
19 35 42 78 51 95 34 64 20 77 -54 51z"/>
<path d="M860 1738 c-5 -13 -16 -75 -25 -139 -8 -64 -17 -125 -19 -135 -2 -10
-7 -41 -10 -67 -4 -27 -9 -59 -12 -70 -10 -53 -6 -97 12 -124 10 -15 23 -35
29 -45 56 -92 93 -150 204 -320 70 -108 135 -204 144 -212 14 -15 17 -15 31 0
9 8 17 26 17 40 1 13 2 27 3 32 1 4 10 43 19 87 10 44 23 103 29 130 6 28 12
57 13 65 1 8 8 28 14 44 22 55 24 110 6 146 -15 29 -279 405 -295 420 -3 3
-21 28 -40 55 -19 28 -38 52 -42 53 -4 2 -8 10 -8 17 0 14 -37 45 -52 45 -5 0
-13 -10 -18 -22z"/>
<path d="M2865 1691 c-22 -10 -44 -19 -50 -21 -5 -1 -34 -13 -64 -26 -29 -13
-56 -24 -58 -24 -3 0 -21 -7 -41 -16 -64 -28 -75 -33 -167 -70 -105 -42 -116
-51 -140 -107 -10 -23 -27 -62 -38 -87 -10 -25 -25 -58 -32 -75 -7 -16 -27
-64 -44 -106 -17 -42 -36 -90 -42 -105 -7 -16 -13 -32 -13 -36 -1 -3 -4 -9 -7
-12 -11 -11 3 -56 17 -56 19 0 107 41 116 54 4 6 8 8 8 4 0 -3 64 25 143 63
78 39 168 82 199 97 59 28 62 31 115 147 7 17 18 37 23 45 19 31 94 195 92
203 -1 4 3 7 8 7 6 0 10 9 10 20 0 11 5 20 10 20 6 0 10 9 10 19 0 11 5 23 10
26 6 3 10 17 10 31 0 29 -19 31 -75 5z"/>
<path d="M395 1670 c-3 -5 -8 -94 -10 -198 l-5 -190 96 -158 c53 -88 104 -172
113 -189 65 -110 94 -148 102 -132 11 19 20 104 34 322 l5 90 -67 102 c-38 57
-106 161 -153 233 -79 122 -100 144 -115 120z"/>
<path d="M2180 1390 c-14 -4 -51 -19 -82 -33 -32 -14 -58 -24 -58 -21 0 3 -12
-2 -27 -10 -16 -8 -56 -25 -91 -37 -34 -12 -65 -26 -68 -30 -3 -5 -15 -9 -28
-9 -12 0 -26 -3 -29 -6 -3 -4 -70 -32 -148 -63 -146 -57 -173 -77 -183 -131
-3 -14 -32 -122 -64 -240 -33 -118 -58 -218 -55 -222 8 -14 39 -8 91 17 29 14
54 25 56 25 3 0 52 23 111 50 59 28 108 50 110 50 2 0 41 17 87 39 45 21 116
53 156 71 69 32 74 36 101 94 15 34 32 72 36 86 4 14 17 45 28 70 11 25 21 50
23 55 1 6 21 55 43 109 56 135 55 153 -9 136z"/>
<path d="M3055 1306 c-218 -115 -260 -138 -274 -151 -26 -25 -201 -389 -191
-399 11 -11 25 -5 232 112 163 93 185 111 219 182 13 27 27 50 31 50 5 0 8 4
8 9 0 5 27 56 59 113 64 112 74 141 51 145 -8 1 -69 -26 -135 -61z"/>
<path d="M2525 1036 c-55 -29 -158 -83 -230 -120 -71 -37 -138 -75 -149 -84
-21 -19 -67 -115 -127 -267 -13 -33 -27 -63 -32 -66 -13 -10 -1 -54 17 -57 9
-2 31 5 49 16 17 11 73 41 122 68 50 26 117 63 150 81 33 18 79 43 102 55 41
21 48 32 132 203 49 100 92 191 95 203 11 34 -17 28 -129 -32z"/>
<path d="M806 1032 c-2 -4 -7 -28 -11 -52 -6 -44 -14 -91 -20 -120 -2 -8 -6
-40 -10 -70 -4 -30 -8 -60 -9 -67 -1 -7 -5 -15 -8 -19 -4 -3 -4 -17 -2 -31 6
-30 354 -590 372 -597 15 -6 37 39 46 94 3 19 17 85 31 147 14 61 25 124 25
140 0 18 -24 62 -67 126 -38 54 -72 106 -78 115 -5 9 -16 22 -23 30 -6 7 -17
23 -23 35 -7 11 -52 79 -101 149 -82 117 -108 142 -122 120z"/>
<path d="M1825 692 c-71 -36 -132 -68 -135 -72 -3 -3 -30 -16 -60 -30 -30 -14
-57 -27 -60 -30 -3 -3 -53 -29 -112 -59 -59 -29 -112 -59 -119 -67 -14 -17
-109 -339 -109 -371 0 -13 5 -23 11 -23 11 0 13 1 294 160 110 63 214 121 230
130 49 26 89 54 102 70 21 26 125 329 119 345 -3 8 -11 14 -18 14 -7 -1 -71
-31 -143 -67z"/>
</g>
</svg>
